<svg xmlns="http://www.w3.org/2000/svg" id="calendar" fill="#9b12ab" width="16" height="16" viewBox="0 0 64 64"><path d="M4.57 59.43h10.29V49.14H4.57v10.29zm12.57 0h11.43V49.14H17.14v10.29zM4.57 46.86h10.29V35.43H4.57v11.43zm12.57 0h11.43V35.43H17.14v11.43zM4.57 33.14h10.29V22.86H4.57v10.28zm26.29 26.29h11.43V49.14H30.86v10.29zM17.14 33.14h11.43V22.86H17.14v10.28zm27.43 26.29h10.29V49.14H44.57v10.29zM30.86 46.86h11.43V35.43H30.86v11.43zM18.29 16V5.71q0-.46-.34-.8t-.8-.34h-2.3q-.46 0-.8.34t-.34.8V16q0 .46.34.8t.8.34h2.3q.46 0 .8-.34t.34-.8zm26.28 30.86h10.29V35.43H44.57v11.43zM30.86 33.14h11.43V22.86H30.86v10.28zm13.71 0h10.29V22.86H44.57v10.28zM45.71 16V5.71q0-.46-.34-.8t-.8-.34h-2.29q-.46 0-.8.34t-.34.8V16q0 .46.34.8t.8.34h2.3q.45 0 .8-.34t.33-.8zm13.72-2.29v45.72q0 1.85-1.36 3.21T54.86 64H4.57q-1.85 0-3.21-1.36T0 59.43V13.7q0-1.85 1.36-3.21t3.21-1.36h4.57V5.71q0-2.35 1.68-4.03T14.86 0h2.28q2.36 0 4.04 1.68t1.68 4.03v3.43h13.71V5.71q0-2.35 1.68-4.03T42.3 0h2.28q2.36 0 4.04 1.68t1.68 4.03v3.43h4.57q1.86 0 3.21 1.36t1.36 3.21z"/></svg>