<svg xmlns="http://www.w3.org/2000/svg" id="envelope" fill="#00686e" width="16" height="16" viewBox="0 0 64 64"><path d="M64 25.36V53.7q0 2.36-1.68 4.04t-4.04 1.68H5.71q-2.35 0-4.03-1.68T0 53.71V25.36q1.57 1.75 3.6 3.1 12.93 8.79 17.76 12.32 2.03 1.5 3.3 2.34t3.37 1.72 3.93.87h.07q1.83 0 3.93-.87t3.38-1.72 3.3-2.34q6.07-4.39 17.79-12.32 2.04-1.39 3.57-3.1zm0-10.5q0 2.82-1.75 5.39t-4.36 4.4q-13.43 9.31-16.71 11.6l-1.52 1.09q-1.16.84-1.93 1.36t-1.85 1.16-2.06.96-1.79.32h-.07q-.82 0-1.78-.32t-2.06-.96-1.85-1.16-1.93-1.36-1.52-1.09q-3.25-2.29-9.36-6.52t-7.32-5.09q-2.21-1.5-4.18-4.12T0 15.64Q0 12.86 1.48 11t4.23-1.86h52.57q2.32 0 4.02 1.68t1.7 4.04z"/></svg>