<svg xmlns="http://www.w3.org/2000/svg" id="finger" fill="#ff824a" width="28" height="28" viewBox="0 0 55 64"><path d="M9.14 48q0-.93-.68-1.6t-1.6-.69-1.61.68T4.57 48t.68 1.6 1.6.69 1.61-.68.68-1.61zM50.3 27.43q0-1.82-1.4-3.2t-3.18-1.37H33.14q0-2.07 1.72-5.7t1.71-5.73q0-3.5-1.14-5.18t-4.57-1.68q-.93.93-1.36 3.04t-1.09 4.48T26.3 16q-.79.82-2.75 3.25l-.82 1.07q-.67.9-1.13 1.47t-1.23 1.51-1.43 1.58-1.38 1.26-1.42.97-1.27.32H13.7v22.86h1.15q.46 0 1.12.1t1.18.23 1.36.4 1.25.4 1.27.45 1.03.38q7.54 2.6 12.22 2.6h4.32q6.85 0 6.85-5.96 0-.93-.18-2 1.08-.57 1.7-1.87t.63-2.63-.65-2.46q1.9-1.79 1.9-4.25 0-.9-.36-1.98t-.9-1.7q1.15-.04 1.92-1.68t.76-2.9zm4.57-.04q0 3.18-1.75 5.82.32 1.18.32 2.47 0 2.75-1.36 5.14.1.75.1 1.54 0 3.6-2.14 6.35.04 4.97-3.03 7.84t-8.1 2.88h-4.62q-3.42 0-6.76-.8t-7.74-2.35q-4.14-1.42-4.92-1.42H4.57q-1.9 0-3.23-1.34T0 50.28V27.43q0-1.9 1.34-3.23t3.23-1.34h9.79q1.28-.86 4.89-5.54 2.07-2.68 3.82-4.57.86-.9 1.27-3.05t1.09-4.52 2.21-3.86Q29.04 0 30.85 0q3 0 5.4 1.16t3.64 3.63 1.25 6.64q0 3.32-1.71 6.86h6.28q3.72 0 6.43 2.71t2.72 6.4z"/></svg>