<svg xmlns="http://www.w3.org/2000/svg" id="gift" fill="#a4379e" width="28" height="28" viewBox="0 0 55 64"><path d="M33.14 48.43V22.86H21.71v25.57q0 .9.65 1.37t1.64.49h6.86q1 0 1.64-.49t.64-1.37zM16.86 18.29h6.96l-4.5-5.75q-.93-1.11-2.46-1.11-1.43 0-2.43 1t-1 2.43 1 2.43 2.43 1zm24.57-3.43q0-1.43-1-2.43t-2.43-1q-1.54 0-2.46 1.1l-4.47 5.75H38q1.43 0 2.43-1t1-2.42zM54.86 24v11.43q0 .5-.32.82t-.82.32h-3.43v14.86q0 1.43-1 2.43t-2.43 1H8q-1.43 0-2.43-1t-1-2.43V36.57H1.14q-.5 0-.82-.32T0 35.43V24q0-.5.32-.82t.82-.32h15.72q-3.32 0-5.66-2.34t-2.34-5.66T11.2 9.2t5.66-2.34q3.82 0 6 2.75l4.57 5.9L32 9.6q2.18-2.75 6-2.75 3.32 0 5.66 2.34T46 14.86t-2.34 5.66T38 22.86H53.7q.5 0 .82.32t.32.82z"/></svg>