<svg xmlns="http://www.w3.org/2000/svg" id="group" fill="#9b12ab" width="16" height="16" viewBox="0 0 64 64"><path d="M21.18 32q-5.79.18-9.47 4.57H6.93Q4 36.57 2 35.12T0 30.9q0-12.6 4.43-12.6.21 0 1.55.75t3.48 1.51 4.25.77q2.4 0 4.75-.82-.17 1.32-.17 2.36 0 4.96 2.89 9.14zm38.25 22.75q0 4.29-2.6 6.77T49.88 64H18.68q-4.32 0-6.93-2.48t-2.6-6.77q0-1.9.12-3.7t.5-3.89.94-3.87 1.54-3.49 2.21-2.89T17.52 35t3.98-.71q.36 0 1.54.76t2.6 1.72 3.82 1.71 4.83.77 4.82-.77 3.82-1.71 2.6-1.72 1.54-.76q2.18 0 3.98.71t3.06 1.91 2.21 2.9 1.54 3.48.94 3.87.5 3.9.13 3.69zM22.86 9.15q0 3.78-2.68 6.46t-6.47 2.68-6.46-2.68-2.68-6.47 2.68-6.46T13.71 0t6.47 2.68 2.68 6.46zM48 22.84q0 5.69-4.02 9.7t-9.7 4.02-9.69-4.02-4.02-9.7 4.02-9.69 9.7-4.02 9.7 4.02 4.01 9.7zm20.57 8.04q0 2.79-2 4.24t-4.93 1.44h-4.78q-3.68-4.4-9.47-4.57 2.9-4.18 2.9-9.14 0-1.04-.18-2.36 2.35.82 4.75.82 2.1 0 4.25-.77t3.48-1.51 1.55-.75q4.43 0 4.43 12.6zM64 9.14q0 3.79-2.68 6.47t-6.46 2.68-6.47-2.68-2.68-6.47 2.68-6.46T54.86 0t6.46 2.68T64 9.14z"/></svg>