<svg xmlns="http://www.w3.org/2000/svg" id="home" fill="#9b12ab" width="16" height="16" viewBox="0 0 64 64"><path d="M50.29 35.43v17.14q0 .93-.68 1.6t-1.61.69H34.29V41.14h-9.15v13.72H11.43q-.93 0-1.6-.68t-.69-1.6V35.42l.02-.1.02-.11 20.54-16.93 20.53 16.93q.04.07.04.2zm7.96-2.47l-2.21 2.65q-.29.32-.75.39h-.11q-.46 0-.75-.25l-24.71-20.6L5 35.74q-.43.29-.86.25-.46-.07-.75-.4l-2.21-2.64q-.29-.35-.25-.84t.4-.76L27 9.96q1.15-.93 2.72-.93t2.71.93l8.71 7.29v-6.96q0-.5.32-.82t.83-.33h6.85q.5 0 .82.32t.32.83v14.57l7.83 6.5q.35.28.39.76t-.25.84z"/></svg>