<svg version="1.1" xmlns="http://www.w3.org/2000/svg" id="logo"><path d="M264 1C163 4 82 13 44 26c-9 4-15 7-18 11-3 3-3 4-3 16v13l3 4c4 4 15 9 25 12l5 1-1 338-1 557-1 219-8 3c-11 4-15 6-19 10l-3 4v26l3 3c14 17 86 29 203 35a1817 1817 0 0 0 329-15c18-3 42-10 50-15s8-6 8-21c0-12 0-14-2-16-2-3-13-9-21-12l-6-1 1-269 1-558 1-289 5-2c7-3 17-8 19-11 2-2 2-4 2-16 0-17 0-17-12-23-21-10-64-18-125-23a1498 1498 0 0 0-215-6zm299 381l-2 463v169l-3-11c-6-31-17-60-38-100-30-59-85-136-134-187-23-23-38-43-46-59-3-7-3-8-3-16s0-9 4-16c8-17 21-32 49-61 97-100 151-195 167-293 4-23 5-61 3-74-6-29-24-57-54-87l-12-12 6-1 63-9v294zM98 92l42 5 6 1-12 12c-24 23-41 46-50 69l-2 6v-48c0-44 0-48 2-48l14 3zm-9 213c7 29 18 57 33 86 25 49 51 87 99 143l31 33c23 22 39 42 46 56s7 21 1 35c-8 17-22 34-54 67a876 876 0 0 0-135 195 417 417 0 0 0-29 79l1-578c0-147 0-147 2-138l5 22zm472 886l-16-2-24-4-12-2h-4l8-10c18-20 36-48 40-64l7-28a1972 1972 0 0 1 1 110zm-476-87a189 189 0 0 0 49 79l-23 3-29 5h-2v-51c0-28 0-51 1-50l4 14z"/></svg>