<svg xmlns="http://www.w3.org/2000/svg" id="clip" fill="#9b12ab" width="16" height="16" viewBox="0 0 64 64"><path d="M50.14 49.46q0 4.18-2.82 7t-7 2.82q-4.82 0-8.4-3.57L4.19 28Q.14 23.9.14 18.32q0-5.68 3.93-9.64t9.6-3.97q5.65 0 9.76 4.04l21.6 21.64q.36.36.36.79 0 .57-1.09 1.66t-1.66 1.09q-.46 0-.82-.36L20.18 11.9q-2.82-2.75-6.46-2.75-3.8 0-6.4 2.68t-2.6 6.47q0 3.75 2.7 6.46L35.15 52.5q2.25 2.25 5.18 2.25 2.29 0 3.79-1.5t1.5-3.79q0-2.93-2.25-5.18L22.6 23.53q-.93-.85-2.14-.85-1.04 0-1.72.68t-.68 1.71q0 1.14.9 2.1L33.6 41.83q.36.36.36.79 0 .57-1.11 1.68t-1.68 1.1q-.43 0-.79-.35L15.75 30.39q-2.25-2.18-2.25-5.32 0-2.93 2.04-4.96t4.96-2.04q3.14 0 5.32 2.25l20.75 20.75q3.57 3.5 3.57 8.4z"/></svg>