<svg xmlns="http://www.w3.org/2000/svg" id="search" width="32" height="32" viewBox="0 0 340 400"><path d="M320.91 226.5c.02 21.66-4.7 39.8-15.14 56.02-3.74 5.81-2.55 8.81 1.9 13.2 26.94 26.54 53.58 53.36 80.3 80.1 7.53 7.54 7.73 11.25.74 19.4a59.11 59.11 0 0 1-8.24 8c-5.38 4.22-10.12 4.15-15.43-1.24-27.14-27.58-54.7-54.74-81.87-82.29-4.14-4.19-6.87-5.33-12.5-1.95-69.96 42.02-156.5-5.81-158.88-87.62-1.49-51.27 40.18-98.76 90.4-104.98 55.83-6.92 105.9 29.72 116.8 82.58 1.43 6.98 2.15 14 1.92 18.79zm-174.12 2.38c-.03 38.29 31.66 70.1 69.78 70.06 37.86-.04 70.03-32.22 70.05-70.06.02-38.14-31.78-69.8-70.08-69.77a69.74 69.74 0 0 0-69.75 69.77z"/></svg>