<svg xmlns="http://www.w3.org/2000/svg" id="cart"><path d="M22.86 54.86q0 1.85-1.36 3.21t-3.21 1.36-3.22-1.36-1.35-3.21 1.35-3.22 3.22-1.35 3.21 1.35 1.36 3.22zm32 0q0 1.85-1.36 3.21t-3.21 1.36-3.22-1.36-1.35-3.21 1.35-3.22 3.22-1.35 3.21 1.35 1.36 3.22zM59.43 16v18.29q0 .85-.59 1.51t-1.45.77l-37.28 4.36q.46 2.14.46 2.5 0 .57-.85 2.29h32.85q.93 0 1.6.67t.69 1.61-.68 1.6-1.6.69H16q-.93 0-1.6-.68t-.68-1.6q0-.4.28-1.13t.57-1.29.77-1.43.55-1.05L9.57 13.7H2.3q-.93 0-1.61-.68T0 11.43t.68-1.6 1.6-.69h9.15q.57 0 1.02.23t.7.56.46.87.28.93.2 1.06.16.93h42.9q.92 0 1.6.67t.68 1.61z"/></svg>