<svg xmlns="http://www.w3.org/2000/svg" id="twitter" width="64" height="64"><path d="M45.71 21.79q-2 .89-4.32 1.21 2.43-1.43 3.32-4.18-2.32 1.36-4.78 1.82-2.18-2.36-5.47-2.36-3.1 0-5.3 2.2t-2.2 5.3q0 1.04.18 1.72-4.6-.25-8.64-2.32t-6.86-5.54q-1.03 1.79-1.03 3.79 0 4.07 3.25 6.25-1.68-.04-3.57-.93v.07q0 2.68 1.78 4.77t4.4 2.59q-1.04.28-1.83.28-.46 0-1.39-.14.75 2.25 2.66 3.71t4.34 1.5q-4.14 3.22-9.32 3.22-.93 0-1.79-.1Q14.43 48 20.64 48q4 0 7.5-1.27t6-3.4 4.3-4.89 2.69-5.78.87-6.02q0-.64-.03-.96 2.25-1.61 3.75-3.9zm9.15-6.93v34.28q0 4.25-3.02 7.27t-7.27 3.02H10.28q-4.25 0-7.26-3.02T0 49.14V14.86q0-4.25 3.02-7.27t7.26-3.02h34.3q4.24 0 7.26 3.02t3.02 7.27z"/></svg>