<svg xmlns="http://www.w3.org/2000/svg" id="vk" width="69" height="64"><path d="M68.46 18.57q.83 2.29-5.35 10.5l-2.32 3.04q-1.43 1.82-1.97 2.57t-1.09 1.77-.43 1.5.47 1.23 1.16 1.53 2.04 1.9q.14.07.17.14 5.04 4.68 6.83 7.9l.23.44q.13.27.25.94t-.02 1.22-.9.98-2.1.45l-9.14.14q-.86.18-2-.18t-1.86-.79l-.71-.42q-1.08-.75-2.5-2.29t-2.45-2.77-2.18-2.07-2.02-.55q-.1.03-.28.12t-.61.52-.77 1.05-.6 1.86-.24 2.77q0 .53-.12.98t-.27.66l-.14.18q-.65.68-1.9.79h-4.1q-2.54.14-5.22-.6t-4.7-1.89-3.67-2.35-2.52-2.06l-.9-.85q-.35-.36-.98-1.07T13 42.6t-3.79-5.4-4.37-7.53-4.66-9.72q-.22-.57-.22-.96t.11-.57l.14-.22q.54-.68 2.04-.68l9.79-.07q.43.07.82.24t.57.3l.18.1q.57.4.85 1.15.72 1.79 1.65 3.7t1.46 2.9l.57 1.04q1.04 2.15 2 3.72t1.73 2.44 1.49 1.38 1.21.5.96-.18q.07-.04.18-.18t.43-.79.48-1.68.34-2.89 0-4.46q-.07-1.43-.32-2.6t-.5-1.65l-.21-.43q-.9-1.22-3.04-1.54-.46-.07.18-.85.57-.68 1.36-1.08 1.9-.92 8.53-.85 2.93.03 4.82.46.72.18 1.2.48t.73.86.38 1.14.12 1.63-.03 1.96-.1 2.52-.05 2.95l-.03 1.5q-.03 1.1-.02 1.71t.12 1.45.42 1.39.8.87l.6.15q.32.07.94-.4t1.35-1.23 1.86-2.39 2.43-3.84q2.14-3.71 3.82-8.04.14-.35.36-.62t.39-.38l.14-.1.18-.1.47-.1.71-.02 10.29-.07q1.39-.18 2.28.1t1.1.58z"/></svg>